<svg xmlns="http://www.w3.org/2000/svg" viewBox="0 0 200 200" width="200" height="200">
  <defs>
    <linearGradient id="grad3" x1="0%" y1="0%" x2="100%" y2="100%">
      <stop offset="0%" style="stop-color:rgb(34,197,94);stop-opacity:1" />
      <stop offset="100%" style="stop-color:rgb(16,185,129);stop-opacity:1" />
    </linearGradient>
  </defs>
  <!-- Body -->
  <ellipse cx="100" cy="140" rx="40" ry="50" fill="url(#grad3)"/>
  <!-- Head -->
  <circle cx="100" cy="70" r="35" fill="url(#grad3)"/>
  <!-- Eyes -->
  <circle cx="90" cy="65" r="5" fill="white"/>
  <circle cx="110" cy="65" r="5" fill="white"/>
  <circle cx="92" cy="67" r="3" fill="#1e293b"/>
  <circle cx="112" cy="67" r="3" fill="#1e293b"/>
  <!-- Smile -->
  <path d="M 85 75 Q 100 85 115 75" stroke="white" stroke-width="3" fill="none" stroke-linecap="round"/>
  <!-- Arms -->
  <rect x="60" y="130" width="15" height="40" rx="7" fill="url(#grad3)"/>
  <rect x="125" y="130" width="15" height="40" rx="7" fill="url(#grad3)"/>
  <!-- Chat bubble -->
  <rect x="125" y="100" width="30" height="20" rx="5" fill="white"/>
  <polygon points="125,115 125,125 135,115" fill="white"/>
  <line x1="130" y1="107" x2="145" y2="107" stroke="#1e293b" stroke-width="2"/>
  <line x1="130" y1="113" x2="145" y2="113" stroke="#1e293b" stroke-width="2"/>
</svg>

